<svg version="1.1" xmlns="http://www.w3.org/2000/svg" xmlns:xlink="http://www.w3.org/1999/xlink" width="48px" height="48px" viewBox="0,0,256,256"><g fill="#e5e7eb" fill-rule="evenodd" stroke="none" stroke-width="1" stroke-linecap="butt" stroke-linejoin="miter" stroke-miterlimit="10" stroke-dasharray="" stroke-dashoffset="0" font-family="none" font-weight="none" font-size="none" text-anchor="none" style="mix-blend-mode: normal"><g transform="scale(5.33333,5.33333)"><path d="M43,40h-38c-2.209,0 -4,-1.791 -4,-4v-24c0,-2.209 1.791,-4 4,-4h38c2.209,0 4,1.791 4,4v24c0,2.209 -1.791,4 -4,4zM3,21h42v-4h-42zM45,12c0,-1.104 -0.896,-2 -2,-2h-38c-1.104,0 -2,0.896 -2,2v3h42zM45,23h-42v13c0,1.104 0.896,2 2,2h38c1.104,0 2,-0.896 2,-2zM26,29h-4c-0.553,0 -1,-0.447 -1,-1c0,-0.552 0.447,-1 1,-1h4c0.553,0 1,0.448 1,1c0,0.553 -0.447,1 -1,1zM17,29h-9c-0.553,0 -1,-0.447 -1,-1c0,-0.552 0.447,-1 1,-1h9c0.553,0 1,0.448 1,1c0,0.553 -0.447,1 -1,1zM8,32h6c0.553,0 1,0.448 1,1c0,0.553 -0.447,1 -1,1h-6c-0.553,0 -1,-0.447 -1,-1c0,-0.552 0.447,-1 1,-1z"></path></g></g></svg>