<svg version="1.1" xmlns="http://www.w3.org/2000/svg" xmlns:xlink="http://www.w3.org/1999/xlink" width="50.000000pt" height="50.000000pt" viewBox="0,0,256,256"><g fill="#7d12ff" fill-rule="nonzero" stroke="none" stroke-width="1" stroke-linecap="butt" stroke-linejoin="miter" stroke-miterlimit="10" stroke-dasharray="" stroke-dashoffset="0" font-family="none" font-weight="none" font-size="none" text-anchor="none" style="mix-blend-mode: normal"><g transform="translate(-0.88967,-3.04703) scale(5.12,5.12)"><g transform="translate(0,50) scale(0.1,-0.1)"><path d="M202,393c-21,-37 -74,-127 -116,-200c-42,-72 -79,-139 -82,-147c-5,-14 22,-16 245,-16c138,0 251,3 251,8c-1,14 -238,416 -248,420c-6,2 -28,-27 -50,-65zM265,234c0,-55 -3,-69 -15,-69c-11,0 -16,15 -18,59c-3,66 2,90 21,83c8,-2 12,-26 12,-73zM270,115c0,-8 -9,-15 -20,-15c-11,0 -20,7 -20,15c0,8 9,15 20,15c11,0 20,-7 20,-15z"></path></g></g></g></svg>