<?xml version="1.0" standalone="no"?>
<!DOCTYPE svg PUBLIC "-//W3C//DTD SVG 20010904//EN"
 "http://www.w3.org/TR/2001/REC-SVG-20010904/DTD/svg10.dtd">
<svg version="1.0" xmlns="http://www.w3.org/2000/svg"
 width="300.000000pt" height="100.000000pt" viewBox="0 0 300.000000 100.000000"
 preserveAspectRatio="xMidYMid meet">

<g transform="translate(0.000000,100.000000) scale(0.100000,-0.100000)"
fill="#000000" stroke="none">
<path d="M822 769 c-204 -40 -278 -234 -138 -357 l38 -33 -16 -66 c-9 -36 -14
-68 -11 -71 3 -3 39 18 81 46 62 43 84 52 118 52 142 0 266 99 266 213 0 59
-14 94 -53 135 -42 44 -89 68 -162 81 -65 12 -63 12 -123 0z"/>
<path d="M1437 720 c-21 -17 -26 -18 -31 -5 -3 9 -19 15 -41 15 l-35 0 0 -245
0 -245 45 0 44 0 3 62 3 62 56 1 c109 2 169 72 169 196 0 80 -26 141 -69 163
-43 23 -113 21 -144 -4z m90 -72 c67 -72 16 -225 -71 -216 l-31 3 -3 108 c-3
104 -2 108 20 117 38 15 63 11 85 -12z"/>
<path d="M1768 723 c-42 -17 -43 -20 -27 -57 10 -21 15 -23 31 -15 29 16 103
16 122 0 9 -7 16 -24 16 -37 0 -22 -4 -24 -50 -24 -98 0 -150 -41 -150 -118 0
-99 82 -136 185 -84 20 10 30 11 33 3 2 -6 19 -11 38 -11 l34 0 0 135 c0 151
-9 184 -60 210 -37 19 -124 18 -172 -2z m142 -227 c0 -38 -14 -53 -58 -62 -37
-7 -62 8 -62 39 0 35 29 57 77 57 42 0 43 -1 43 -34z"/>
<path d="M2083 729 c-18 -5 -33 -12 -33 -14 0 -3 27 -79 60 -169 33 -90 60
-171 60 -178 0 -8 -16 -34 -37 -57 l-36 -43 29 -23 c20 -16 34 -20 45 -15 21
12 61 65 86 115 23 44 133 346 133 362 0 11 -51 33 -75 33 -6 0 -29 -60 -50
-135 -21 -74 -41 -133 -43 -131 -2 3 -21 62 -41 133 -24 81 -43 129 -52 130
-8 1 -29 -3 -46 -8z"/>
</g>
</svg>
