<svg width="102" height="119" viewBox="0 0 102 119" fill="none" xmlns="http://www.w3.org/2000/svg">
<g clip-path="url(#clip0_639_1321)">
<path d="M23.2107 0.902657L49.1548 20.6784C49.798 21.1666 50.6676 21.1666 51.3108 20.6876L77.7893 0.902657C80.7787 -1.33559 85 0.838181 85 4.61465V57.0154C85 62.5327 80.6065 67 75.1804 67H25.8196C20.3935 67 16 62.5327 16 57.0154V4.61465C16 0.838181 20.2213 -1.33559 23.2107 0.902657Z" fill="url(#paint0_linear_639_1321)"/>
<path opacity="0.7" d="M75.2347 23.8838C75.2347 21.0148 72.9473 18.6889 70.1256 18.6889C67.304 18.6889 65.0165 21.0148 65.0165 23.8838V53.0639C65.0165 55.933 67.304 58.2589 70.1256 58.2589C72.9473 58.2589 75.2347 55.933 75.2347 53.0639V23.8838Z" fill="white"/>
<path d="M75.2347 23.8838C75.2347 21.0148 72.9473 18.6889 70.1256 18.6889C67.304 18.6889 65.0165 21.0148 65.0165 23.8838C65.0165 26.7529 67.304 29.0788 70.1256 29.0788C72.9473 29.0788 75.2347 26.7529 75.2347 23.8838Z" fill="white"/>
<path opacity="0.7" d="M59.1828 36.3185C59.1828 33.4494 56.8953 31.1236 54.0737 31.1236C51.252 31.1236 48.9646 33.4494 48.9646 36.3185V53.0639C48.9646 55.933 51.252 58.2589 54.0737 58.2589C56.8953 58.2589 59.1828 55.933 59.1828 53.0639V36.3185Z" fill="white"/>
<path opacity="0.7" d="M43.1398 47.6756C43.1398 44.8065 40.8524 42.4806 38.0307 42.4806C35.2091 42.4806 32.9216 44.8065 32.9216 47.6756V53.0639C32.9216 55.933 35.2091 58.2589 38.0307 58.2589C40.8524 58.2589 43.1398 55.933 43.1398 53.0639V47.6756Z" fill="white"/>
<path d="M43.1398 47.6756C43.1398 44.8065 40.8524 42.4806 38.0307 42.4806C35.2091 42.4806 32.9216 44.8065 32.9216 47.6756C32.9216 50.5446 35.2091 52.8705 38.0307 52.8705C40.8524 52.8705 43.1398 50.5446 43.1398 47.6756Z" fill="white"/>
<path d="M59.1827 36.3185C59.1827 33.4494 56.8953 31.1236 54.0736 31.1236C51.252 31.1236 48.9645 33.4494 48.9645 36.3185C48.9645 39.1876 51.252 41.5135 54.0736 41.5135C56.8953 41.5135 59.1827 39.1876 59.1827 36.3185Z" fill="white"/>
</g>
<path d="M88.6564 103.52C91.0961 103.52 93.2695 103.086 95.1764 102.218C97.0834 101.35 98.5977 100.092 99.7194 98.4426C100.813 96.7647 101.36 94.725 101.36 92.3238C101.36 89.6911 100.813 87.5068 99.7194 85.7709C98.6258 84.0351 97.2096 82.7332 95.4709 81.8653C93.7041 80.9684 91.8533 80.52 89.9183 80.52C87.9272 80.52 86.1465 80.954 84.5761 81.8219C82.9776 82.6609 81.7156 83.876 80.7902 85.4672C79.8367 87.0584 79.36 88.9678 79.36 91.1955C79.36 91.7452 79.388 92.3816 79.4441 93.1049C79.5002 93.7992 79.5843 94.3923 79.6965 94.8842H93.0732C92.961 95.376 92.7507 95.7955 92.4422 96.1426C92.1337 96.4609 91.7131 96.6923 91.1803 96.837C90.6474 96.9816 90.0445 97.054 89.3715 97.054H81.5894V103.52H88.6564ZM93.4518 90.2842H86.8055C86.8055 89.937 86.8476 89.6043 86.9317 89.286C87.0158 88.9678 87.156 88.6785 87.3523 88.4181C87.5206 88.1288 87.7309 87.8829 87.9833 87.6804C88.2357 87.4489 88.5442 87.2754 88.9087 87.1596C89.2453 87.0439 89.6238 86.986 90.0445 86.986C90.5773 86.986 91.0541 87.0728 91.4747 87.2464C91.8673 87.42 92.2038 87.6515 92.4843 87.9408C92.7647 88.2301 92.989 88.5772 93.1573 88.9823C93.2975 89.3873 93.3957 89.8213 93.4518 90.2842Z" fill="#7D12FF"/>
<path d="M73.4278 103.52C71.4012 103.52 69.8145 102.947 68.6678 101.8C67.5212 100.653 66.9478 99.0933 66.9478 97.12V78H74.6278V96.4C74.6278 96.6667 74.7212 96.8933 74.9078 97.08C75.0945 97.24 75.3212 97.32 75.5878 97.32H80.1078V103.52H73.4278ZM63.8278 88.64V82.8H80.1078V88.64H63.8278Z" fill="#7D12FF"/>
<path d="M54.2928 104C52.2128 104 50.3061 103.547 48.5728 102.64C46.8661 101.733 45.4928 100.467 44.4528 98.84C43.4395 97.1867 42.9328 95.2933 42.9328 93.16C42.9328 91.0267 43.4395 89.1467 44.4528 87.52C45.4928 85.8933 46.8795 84.6267 48.6128 83.72C50.3461 82.7867 52.2528 82.32 54.3328 82.32C56.4128 82.32 58.3061 82.7867 60.0128 83.72C61.7195 84.6267 63.0795 85.8933 64.0928 87.52C65.1061 89.1467 65.6128 91.0267 65.6128 93.16C65.6128 95.2933 65.1061 97.1867 64.0928 98.84C63.0795 100.467 61.7061 101.733 59.9728 102.64C58.2661 103.547 56.3728 104 54.2928 104ZM54.2928 97.12C55.0128 97.12 55.6528 96.9467 56.2128 96.6C56.7728 96.2533 57.1995 95.7867 57.4928 95.2C57.8128 94.5867 57.9728 93.8933 57.9728 93.12C57.9728 92.3467 57.8128 91.6667 57.4928 91.08C57.1995 90.4933 56.7728 90.0267 56.2128 89.68C55.6528 89.3333 55.0128 89.16 54.2928 89.16C53.5728 89.16 52.9328 89.3333 52.3728 89.68C51.8128 90.0267 51.3728 90.4933 51.0528 91.08C50.7328 91.6667 50.5728 92.3467 50.5728 93.12C50.5728 93.8933 50.7328 94.5867 51.0528 95.2C51.3728 95.7867 51.8128 96.2533 52.3728 96.6C52.9328 96.9467 53.5728 97.12 54.2928 97.12Z" fill="#7D12FF"/>
<path d="M21.44 104.04C19.7333 104.04 18.12 103.693 16.6 103C15.1067 102.307 13.8933 101.28 12.96 99.92C12.0267 98.56 11.56 96.8933 11.56 94.92V84.08C11.56 83.7333 11.48 83.44 11.32 83.2C11.1867 82.9333 11 82.7333 10.76 82.6C10.52 82.4667 10.24 82.4 9.92 82.4C9.6 82.4 9.30667 82.4667 9.04 82.6C8.8 82.7333 8.6 82.9333 8.44 83.2C8.30667 83.44 8.24 83.7333 8.24 84.08V103.52H0V84.16C0 82.2133 0.453333 80.56 1.36 79.2C2.29333 77.84 3.52 76.8 5.04 76.08C6.56 75.36 8.18667 75 9.92 75C11.6533 75 13.2667 75.36 14.76 76.08C16.2533 76.8 17.4667 77.84 18.4 79.2C19.3333 80.56 19.8 82.2133 19.8 84.16V95C19.8 95.3467 19.88 95.6533 20.04 95.92C20.2 96.16 20.4 96.3467 20.64 96.48C20.88 96.6133 21.1333 96.68 21.4 96.68C21.6933 96.68 21.9733 96.6133 22.24 96.48C22.5067 96.3467 22.72 96.16 22.88 95.92C23.04 95.6533 23.12 95.3467 23.12 95V84.16C23.12 82.2133 23.5867 80.56 24.52 79.2C25.4533 77.84 26.6667 76.8 28.16 76.08C29.68 75.36 31.2933 75 33 75C34.7067 75 36.3067 75.36 37.8 76.08C39.2933 76.8 40.5067 77.84 41.44 79.2C42.3733 80.56 42.84 82.2133 42.84 84.16V103.52H34.64V83.96C34.64 83.64 34.56 83.3733 34.4 83.16C34.24 82.92 34.04 82.7333 33.8 82.6C33.56 82.4667 33.2933 82.4 33 82.4C32.7067 82.4 32.4267 82.4667 32.16 82.6C31.8933 82.7333 31.68 82.92 31.52 83.16C31.3867 83.3733 31.32 83.64 31.32 83.96V94.92C31.32 96.8933 30.84 98.56 29.88 99.92C28.9467 101.28 27.7333 102.307 26.24 103C24.7467 103.693 23.1467 104.04 21.44 104.04Z" fill="#7D12FF"/>
<path d="M3.296 114.52L1.416 109.512H1.384C1.4 109.677 1.41333 109.901 1.424 110.184C1.43467 110.461 1.44 110.752 1.44 111.056V114.52H0.776V108.808H1.84L3.6 113.488H3.632L5.424 108.808H6.48V114.52H5.768V111.008C5.768 110.731 5.77333 110.456 5.784 110.184C5.8 109.912 5.81333 109.691 5.824 109.52H5.792L3.888 114.52H3.296ZM13.0178 111.656C13.0178 112.248 12.9165 112.765 12.7138 113.208C12.5165 113.645 12.2205 113.987 11.8258 114.232C11.4365 114.477 10.9565 114.6 10.3858 114.6C9.79381 114.6 9.30048 114.477 8.90581 114.232C8.51648 113.987 8.22581 113.643 8.03381 113.2C7.84181 112.757 7.74581 112.24 7.74581 111.648C7.74581 111.067 7.84181 110.557 8.03381 110.12C8.22581 109.677 8.51648 109.333 8.90581 109.088C9.30048 108.843 9.79648 108.72 10.3938 108.72C10.9645 108.72 11.4445 108.843 11.8338 109.088C12.2231 109.328 12.5165 109.669 12.7138 110.112C12.9165 110.549 13.0178 111.064 13.0178 111.656ZM8.50581 111.656C8.50581 112.376 8.65781 112.944 8.96181 113.36C9.26581 113.771 9.74048 113.976 10.3858 113.976C11.0311 113.976 11.5031 113.771 11.8018 113.36C12.1058 112.944 12.2578 112.376 12.2578 111.656C12.2578 110.936 12.1085 110.373 11.8098 109.968C11.5111 109.557 11.0391 109.352 10.3938 109.352C9.74315 109.352 9.26581 109.557 8.96181 109.968C8.65781 110.373 8.50581 110.936 8.50581 111.656ZM16.7318 109.36C16.1185 109.36 15.6358 109.565 15.2838 109.976C14.9318 110.387 14.7558 110.949 14.7558 111.664C14.7558 112.373 14.9185 112.936 15.2438 113.352C15.5745 113.763 16.0678 113.968 16.7238 113.968C16.9691 113.968 17.2038 113.947 17.4278 113.904C17.6518 113.861 17.8731 113.808 18.0918 113.744V114.368C17.8785 114.448 17.6571 114.507 17.4278 114.544C17.2038 114.581 16.9345 114.6 16.6198 114.6C16.0385 114.6 15.5531 114.48 15.1638 114.24C14.7745 114 14.4811 113.659 14.2838 113.216C14.0918 112.773 13.9958 112.253 13.9958 111.656C13.9958 111.08 14.0998 110.573 14.3078 110.136C14.5211 109.693 14.8331 109.349 15.2438 109.104C15.6545 108.853 16.1531 108.728 16.7398 108.728C17.3425 108.728 17.8678 108.84 18.3158 109.064L18.0278 109.672C17.8518 109.592 17.6545 109.52 17.4358 109.456C17.2225 109.392 16.9878 109.36 16.7318 109.36ZM23.5145 114.52H22.6665L20.6425 111.792L20.0585 112.304V114.52H19.3385V108.808H20.0585V111.624C20.2185 111.443 20.3812 111.261 20.5465 111.08C20.7118 110.899 20.8772 110.717 21.0425 110.536L22.5865 108.808H23.4265L21.1625 111.296L23.5145 114.52ZM29.6019 112.992C29.6019 113.499 29.4179 113.893 29.0499 114.176C28.6819 114.459 28.1859 114.6 27.5619 114.6C27.2419 114.6 26.9459 114.576 26.6739 114.528C26.4019 114.48 26.1753 114.413 25.9939 114.328V113.64C26.1859 113.725 26.4233 113.803 26.7059 113.872C26.9939 113.941 27.2899 113.976 27.5939 113.976C28.0153 113.976 28.3353 113.893 28.5539 113.728C28.7726 113.563 28.8819 113.339 28.8819 113.056C28.8819 112.869 28.8419 112.712 28.7619 112.584C28.6819 112.456 28.5433 112.339 28.3459 112.232C28.1486 112.125 27.8793 112.008 27.5379 111.88C27.0473 111.704 26.6793 111.488 26.4339 111.232C26.1886 110.976 26.0659 110.627 26.0659 110.184C26.0659 109.885 26.1433 109.627 26.2979 109.408C26.4526 109.189 26.6659 109.021 26.9379 108.904C27.2099 108.787 27.5273 108.728 27.8899 108.728C28.1993 108.728 28.4846 108.757 28.7459 108.816C29.0073 108.875 29.2473 108.952 29.4659 109.048L29.2419 109.664C29.0446 109.579 28.8286 109.507 28.5939 109.448C28.3593 109.389 28.1193 109.36 27.8739 109.36C27.5166 109.36 27.2473 109.437 27.0659 109.592C26.8846 109.741 26.7939 109.941 26.7939 110.192C26.7939 110.384 26.8339 110.544 26.9139 110.672C26.9939 110.8 27.1246 110.917 27.3059 111.024C27.4873 111.125 27.7326 111.232 28.0419 111.344C28.3779 111.467 28.6606 111.6 28.8899 111.744C29.1246 111.883 29.3006 112.051 29.4179 112.248C29.5406 112.445 29.6019 112.693 29.6019 112.992ZM32.5606 114.52H31.8406V109.44H30.0566V108.808H34.3366V109.44H32.5606V114.52ZM40.0256 111.656C40.0256 112.248 39.9243 112.765 39.7216 113.208C39.5243 113.645 39.2283 113.987 38.8336 114.232C38.4443 114.477 37.9643 114.6 37.3936 114.6C36.8016 114.6 36.3083 114.477 35.9136 114.232C35.5243 113.987 35.2336 113.643 35.0416 113.2C34.8496 112.757 34.7536 112.24 34.7536 111.648C34.7536 111.067 34.8496 110.557 35.0416 110.12C35.2336 109.677 35.5243 109.333 35.9136 109.088C36.3083 108.843 36.8043 108.72 37.4016 108.72C37.9723 108.72 38.4523 108.843 38.8416 109.088C39.231 109.328 39.5243 109.669 39.7216 110.112C39.9243 110.549 40.0256 111.064 40.0256 111.656ZM35.5136 111.656C35.5136 112.376 35.6656 112.944 35.9696 113.36C36.2736 113.771 36.7483 113.976 37.3936 113.976C38.039 113.976 38.511 113.771 38.8096 113.36C39.1136 112.944 39.2656 112.376 39.2656 111.656C39.2656 110.936 39.1163 110.373 38.8176 109.968C38.519 109.557 38.047 109.352 37.4016 109.352C36.751 109.352 36.2736 109.557 35.9696 109.968C35.6656 110.373 35.5136 110.936 35.5136 111.656ZM43.7396 109.36C43.1263 109.36 42.6436 109.565 42.2916 109.976C41.9396 110.387 41.7636 110.949 41.7636 111.664C41.7636 112.373 41.9263 112.936 42.2516 113.352C42.5823 113.763 43.0756 113.968 43.7316 113.968C43.977 113.968 44.2116 113.947 44.4356 113.904C44.6596 113.861 44.881 113.808 45.0996 113.744V114.368C44.8863 114.448 44.665 114.507 44.4356 114.544C44.2116 114.581 43.9423 114.6 43.6276 114.6C43.0463 114.6 42.561 114.48 42.1716 114.24C41.7823 114 41.489 113.659 41.2916 113.216C41.0996 112.773 41.0036 112.253 41.0036 111.656C41.0036 111.08 41.1076 110.573 41.3156 110.136C41.529 109.693 41.841 109.349 42.2516 109.104C42.6623 108.853 43.161 108.728 43.7476 108.728C44.3503 108.728 44.8756 108.84 45.3236 109.064L45.0356 109.672C44.8596 109.592 44.6623 109.52 44.4436 109.456C44.2303 109.392 43.9956 109.36 43.7396 109.36ZM50.5223 114.52H49.6743L47.6503 111.792L47.0663 112.304V114.52H46.3463V108.808H47.0663V111.624C47.2263 111.443 47.389 111.261 47.5543 111.08C47.7196 110.899 47.885 110.717 48.0503 110.536L49.5943 108.808H50.4343L48.1703 111.296L50.5223 114.52ZM54.9778 114.52H52.9138V114.104L53.5858 113.952V109.384L52.9138 109.224V108.808H54.9778V109.224L54.3058 109.384V113.952L54.9778 114.104V114.52ZM60.6087 114.52H59.7687L56.7127 109.776H56.6807C56.6914 109.963 56.7047 110.195 56.7207 110.472C56.7367 110.749 56.7447 111.035 56.7447 111.328V114.52H56.0807V108.808H56.9127L59.9607 113.536H59.9927C59.9874 113.451 59.9794 113.323 59.9687 113.152C59.9634 112.981 59.9554 112.797 59.9447 112.6C59.9394 112.397 59.9367 112.208 59.9367 112.032V108.808H60.6087V114.52ZM66.1828 108.808L64.1428 114.52H63.4228L61.3828 108.808H62.1348L63.4228 112.472C63.5081 112.707 63.5775 112.928 63.6308 113.136C63.6895 113.339 63.7401 113.533 63.7828 113.72C63.8201 113.533 63.8681 113.336 63.9268 113.128C63.9855 112.92 64.0575 112.696 64.1428 112.456L65.4228 108.808H66.1828ZM70.1477 114.52H66.9557V108.808H70.1477V109.44H67.6757V111.224H70.0037V111.848H67.6757V113.888H70.1477V114.52ZM74.641 112.992C74.641 113.499 74.457 113.893 74.089 114.176C73.721 114.459 73.225 114.6 72.601 114.6C72.281 114.6 71.985 114.576 71.713 114.528C71.441 114.48 71.2143 114.413 71.033 114.328V113.64C71.225 113.725 71.4623 113.803 71.745 113.872C72.033 113.941 72.329 113.976 72.633 113.976C73.0543 113.976 73.3743 113.893 73.593 113.728C73.8117 113.563 73.921 113.339 73.921 113.056C73.921 112.869 73.881 112.712 73.801 112.584C73.721 112.456 73.5823 112.339 73.385 112.232C73.1877 112.125 72.9183 112.008 72.577 111.88C72.0863 111.704 71.7183 111.488 71.473 111.232C71.2277 110.976 71.105 110.627 71.105 110.184C71.105 109.885 71.1823 109.627 71.337 109.408C71.4917 109.189 71.705 109.021 71.977 108.904C72.249 108.787 72.5663 108.728 72.929 108.728C73.2383 108.728 73.5237 108.757 73.785 108.816C74.0463 108.875 74.2863 108.952 74.505 109.048L74.281 109.664C74.0837 109.579 73.8677 109.507 73.633 109.448C73.3983 109.389 73.1583 109.36 72.913 109.36C72.5557 109.36 72.2863 109.437 72.105 109.592C71.9237 109.741 71.833 109.941 71.833 110.192C71.833 110.384 71.873 110.544 71.953 110.672C72.033 110.8 72.1637 110.917 72.345 111.024C72.5263 111.125 72.7717 111.232 73.081 111.344C73.417 111.467 73.6997 111.6 73.929 111.744C74.1637 111.883 74.3397 112.051 74.457 112.248C74.5797 112.445 74.641 112.693 74.641 112.992ZM77.5996 114.52H76.8796V109.44H75.0956V108.808H79.3756V109.44H77.5996V114.52ZM82.7569 114.52L80.8769 109.512H80.8449C80.8609 109.677 80.8743 109.901 80.8849 110.184C80.8956 110.461 80.9009 110.752 80.9009 111.056V114.52H80.2369V108.808H81.3009L83.0609 113.488H83.0929L84.8849 108.808H85.9409V114.52H85.2289V111.008C85.2289 110.731 85.2343 110.456 85.2449 110.184C85.2609 109.912 85.2743 109.691 85.2849 109.52H85.2529L83.3489 114.52H82.7569ZM90.6868 114.52H87.4948V108.808H90.6868V109.44H88.2148V111.224H90.5428V111.848H88.2148V113.888H90.6868V114.52ZM96.4681 114.52H95.6281L92.5721 109.776H92.5401C92.5507 109.963 92.5641 110.195 92.5801 110.472C92.5961 110.749 92.6041 111.035 92.6041 111.328V114.52H91.9401V108.808H92.7721L95.8201 113.536H95.8521C95.8467 113.451 95.8387 113.323 95.8281 113.152C95.8227 112.981 95.8147 112.797 95.8041 112.6C95.7987 112.397 95.7961 112.208 95.7961 112.032V108.808H96.4681V114.52ZM99.8262 114.52H99.1062V109.44H97.3222V108.808H101.602V109.44H99.8262V114.52Z" fill="#7D12FF"/>
<defs>
<linearGradient id="paint0_linear_639_1321" x1="11.0177" y1="-7.59899" x2="76.3156" y2="55.6419" gradientUnits="userSpaceOnUse">
<stop stop-color="#F50A5E"/>
<stop offset="0.13" stop-color="#3CC5FC"/>
<stop offset="0.32" stop-color="#65ADF9"/>
<stop offset="0.5" stop-color="#8599F6"/>
<stop offset="0.68" stop-color="#9C8CF4"/>
<stop offset="0.85" stop-color="#AA83F3"/>
<stop offset="1" stop-color="#AF81F3"/>
</linearGradient>
<clipPath id="clip0_639_1321">
<rect width="69" height="67" fill="white" transform="translate(16)"/>
</clipPath>
</defs>
</svg>
