<svg width="184" height="70" viewBox="0 0 184 70" fill="none" xmlns="http://www.w3.org/2000/svg">
<g clip-path="url(#clip0_639_1356)">
<path d="M7.21071 0.902657L33.1548 20.6784C33.798 21.1666 34.6676 21.1666 35.3108 20.6876L61.7893 0.902657C64.7787 -1.33559 69 0.838181 69 4.61465V57.0154C69 62.5327 64.6065 67 59.1804 67H9.81961C4.39346 67 0 62.5327 0 57.0154V4.61465C0 0.838181 4.22135 -1.33559 7.21071 0.902657Z" fill="url(#paint0_linear_639_1356)"/>
<path opacity="0.7" d="M59.2347 23.8838C59.2347 21.0148 56.9473 18.6889 54.1256 18.6889C51.304 18.6889 49.0165 21.0148 49.0165 23.8838V53.0639C49.0165 55.933 51.304 58.2589 54.1256 58.2589C56.9473 58.2589 59.2347 55.933 59.2347 53.0639V23.8838Z" fill="white"/>
<path d="M59.2347 23.8838C59.2347 21.0148 56.9473 18.6889 54.1256 18.6889C51.304 18.6889 49.0165 21.0148 49.0165 23.8838C49.0165 26.7529 51.304 29.0788 54.1256 29.0788C56.9473 29.0788 59.2347 26.7529 59.2347 23.8838Z" fill="white"/>
<path opacity="0.7" d="M43.1828 36.3185C43.1828 33.4494 40.8953 31.1236 38.0737 31.1236C35.252 31.1236 32.9646 33.4494 32.9646 36.3185V53.0639C32.9646 55.933 35.252 58.2589 38.0737 58.2589C40.8953 58.2589 43.1828 55.933 43.1828 53.0639V36.3185Z" fill="white"/>
<path opacity="0.7" d="M27.1398 47.6756C27.1398 44.8065 24.8524 42.4806 22.0307 42.4806C19.2091 42.4806 16.9216 44.8065 16.9216 47.6756V53.0639C16.9216 55.933 19.2091 58.2589 22.0307 58.2589C24.8524 58.2589 27.1398 55.933 27.1398 53.0639V47.6756Z" fill="white"/>
<path d="M27.1398 47.6756C27.1398 44.8065 24.8524 42.4806 22.0307 42.4806C19.2091 42.4806 16.9216 44.8065 16.9216 47.6756C16.9216 50.5446 19.2091 52.8705 22.0307 52.8705C24.8524 52.8705 27.1398 50.5446 27.1398 47.6756Z" fill="white"/>
<path d="M43.1827 36.3185C43.1827 33.4494 40.8953 31.1236 38.0736 31.1236C35.252 31.1236 32.9645 33.4494 32.9645 36.3185C32.9645 39.1876 35.252 41.5135 38.0736 41.5135C40.8953 41.5135 43.1827 39.1876 43.1827 36.3185Z" fill="white"/>
</g>
<path d="M170.656 54.52C173.096 54.52 175.269 54.0861 177.176 53.2181C179.083 52.3502 180.598 51.0917 181.719 49.4427C182.813 47.7647 183.36 45.7251 183.36 43.3238C183.36 40.6911 182.813 38.5068 181.719 36.771C180.626 35.0351 179.21 33.7332 177.471 32.8653C175.704 31.9684 173.853 31.52 171.918 31.52C169.927 31.52 168.146 31.954 166.576 32.8219C164.978 33.6609 163.716 34.876 162.79 36.4672C161.837 38.0584 161.36 39.9678 161.36 42.1955C161.36 42.7452 161.388 43.3817 161.444 44.1049C161.5 44.7993 161.584 45.3923 161.697 45.8842H175.073C174.961 46.376 174.751 46.7955 174.442 47.1427C174.134 47.4609 173.713 47.6923 173.18 47.837C172.647 47.9817 172.044 48.054 171.371 48.054H163.589V54.52H170.656ZM175.452 41.2842H168.805C168.805 40.937 168.848 40.6043 168.932 40.2861C169.016 39.9678 169.156 39.6785 169.352 39.4181C169.521 39.1288 169.731 38.8829 169.983 38.6804C170.236 38.449 170.544 38.2754 170.909 38.1596C171.245 38.0439 171.624 37.9861 172.044 37.9861C172.577 37.9861 173.054 38.0728 173.475 38.2464C173.867 38.42 174.204 38.6515 174.484 38.9408C174.765 39.2301 174.989 39.5773 175.157 39.9823C175.298 40.3873 175.396 40.8213 175.452 41.2842Z" fill="#7D12FF"/>
<path d="M155.428 54.52C153.401 54.52 151.814 53.9467 150.668 52.8C149.521 51.6533 148.948 50.0933 148.948 48.12V29H156.628V47.4C156.628 47.6667 156.721 47.8933 156.908 48.08C157.094 48.24 157.321 48.32 157.588 48.32H162.108V54.52H155.428ZM145.828 39.64V33.8H162.108V39.64H145.828Z" fill="#7D12FF"/>
<path d="M136.293 55C134.213 55 132.306 54.5467 130.573 53.64C128.866 52.7333 127.493 51.4667 126.453 49.84C125.439 48.1867 124.933 46.2933 124.933 44.16C124.933 42.0267 125.439 40.1467 126.453 38.52C127.493 36.8933 128.879 35.6267 130.613 34.72C132.346 33.7867 134.253 33.32 136.333 33.32C138.413 33.32 140.306 33.7867 142.013 34.72C143.719 35.6267 145.079 36.8933 146.093 38.52C147.106 40.1467 147.613 42.0267 147.613 44.16C147.613 46.2933 147.106 48.1867 146.093 49.84C145.079 51.4667 143.706 52.7333 141.973 53.64C140.266 54.5467 138.373 55 136.293 55ZM136.293 48.12C137.013 48.12 137.653 47.9467 138.213 47.6C138.773 47.2533 139.199 46.7867 139.493 46.2C139.813 45.5867 139.973 44.8933 139.973 44.12C139.973 43.3467 139.813 42.6667 139.493 42.08C139.199 41.4933 138.773 41.0267 138.213 40.68C137.653 40.3333 137.013 40.16 136.293 40.16C135.573 40.16 134.933 40.3333 134.373 40.68C133.813 41.0267 133.373 41.4933 133.053 42.08C132.733 42.6667 132.573 43.3467 132.573 44.12C132.573 44.8933 132.733 45.5867 133.053 46.2C133.373 46.7867 133.813 47.2533 134.373 47.6C134.933 47.9467 135.573 48.12 136.293 48.12Z" fill="#7D12FF"/>
<path d="M103.44 55.04C101.733 55.04 100.12 54.6933 98.6 54C97.1067 53.3067 95.8933 52.28 94.96 50.92C94.0267 49.56 93.56 47.8933 93.56 45.92V35.08C93.56 34.7333 93.48 34.44 93.32 34.2C93.1867 33.9333 93 33.7333 92.76 33.6C92.52 33.4667 92.24 33.4 91.92 33.4C91.6 33.4 91.3067 33.4667 91.04 33.6C90.8 33.7333 90.6 33.9333 90.44 34.2C90.3067 34.44 90.24 34.7333 90.24 35.08V54.52H82V35.16C82 33.2133 82.4533 31.56 83.36 30.2C84.2933 28.84 85.52 27.8 87.04 27.08C88.56 26.36 90.1867 26 91.92 26C93.6533 26 95.2667 26.36 96.76 27.08C98.2533 27.8 99.4667 28.84 100.4 30.2C101.333 31.56 101.8 33.2133 101.8 35.16V46C101.8 46.3467 101.88 46.6533 102.04 46.92C102.2 47.16 102.4 47.3467 102.64 47.48C102.88 47.6133 103.133 47.68 103.4 47.68C103.693 47.68 103.973 47.6133 104.24 47.48C104.507 47.3467 104.72 47.16 104.88 46.92C105.04 46.6533 105.12 46.3467 105.12 46V35.16C105.12 33.2133 105.587 31.56 106.52 30.2C107.453 28.84 108.667 27.8 110.16 27.08C111.68 26.36 113.293 26 115 26C116.707 26 118.307 26.36 119.8 27.08C121.293 27.8 122.507 28.84 123.44 30.2C124.373 31.56 124.84 33.2133 124.84 35.16V54.52H116.64V34.96C116.64 34.64 116.56 34.3733 116.4 34.16C116.24 33.92 116.04 33.7333 115.8 33.6C115.56 33.4667 115.293 33.4 115 33.4C114.707 33.4 114.427 33.4667 114.16 33.6C113.893 33.7333 113.68 33.92 113.52 34.16C113.387 34.3733 113.32 34.64 113.32 34.96V45.92C113.32 47.8933 112.84 49.56 111.88 50.92C110.947 52.28 109.733 53.3067 108.24 54C106.747 54.6933 105.147 55.04 103.44 55.04Z" fill="#7D12FF"/>
<path d="M85.296 65.52L83.416 60.512H83.384C83.4 60.6774 83.4133 60.9014 83.424 61.184C83.4347 61.4614 83.44 61.752 83.44 62.056V65.52H82.776V59.808H83.84L85.6 64.488H85.632L87.424 59.808H88.48V65.52H87.768V62.008C87.768 61.7307 87.7733 61.456 87.784 61.184C87.8 60.912 87.8133 60.6907 87.824 60.52H87.792L85.888 65.52H85.296ZM95.0178 62.656C95.0178 63.248 94.9165 63.7654 94.7138 64.208C94.5165 64.6454 94.2205 64.9867 93.8258 65.232C93.4365 65.4774 92.9565 65.6 92.3858 65.6C91.7938 65.6 91.3005 65.4774 90.9058 65.232C90.5165 64.9867 90.2258 64.6427 90.0338 64.2C89.8418 63.7574 89.7458 63.24 89.7458 62.648C89.7458 62.0667 89.8418 61.5574 90.0338 61.12C90.2258 60.6774 90.5165 60.3334 90.9058 60.088C91.3005 59.8427 91.7965 59.72 92.3938 59.72C92.9645 59.72 93.4445 59.8427 93.8338 60.088C94.2231 60.328 94.5165 60.6694 94.7138 61.112C94.9165 61.5494 95.0178 62.064 95.0178 62.656ZM90.5058 62.656C90.5058 63.376 90.6578 63.944 90.9618 64.36C91.2658 64.7707 91.7405 64.976 92.3858 64.976C93.0311 64.976 93.5031 64.7707 93.8018 64.36C94.1058 63.944 94.2578 63.376 94.2578 62.656C94.2578 61.936 94.1085 61.3734 93.8098 60.968C93.5111 60.5574 93.0391 60.352 92.3938 60.352C91.7431 60.352 91.2658 60.5574 90.9618 60.968C90.6578 61.3734 90.5058 61.936 90.5058 62.656ZM98.7318 60.36C98.1185 60.36 97.6358 60.5654 97.2838 60.976C96.9318 61.3867 96.7558 61.9494 96.7558 62.664C96.7558 63.3734 96.9185 63.936 97.2438 64.352C97.5745 64.7627 98.0678 64.968 98.7238 64.968C98.9691 64.968 99.2038 64.9467 99.4278 64.904C99.6518 64.8614 99.8731 64.808 100.092 64.744V65.368C99.8785 65.448 99.6571 65.5067 99.4278 65.544C99.2038 65.5814 98.9345 65.6 98.6198 65.6C98.0385 65.6 97.5531 65.48 97.1638 65.24C96.7745 65 96.4811 64.6587 96.2838 64.216C96.0918 63.7734 95.9958 63.2534 95.9958 62.656C95.9958 62.08 96.0998 61.5734 96.3078 61.136C96.5211 60.6934 96.8331 60.3494 97.2438 60.104C97.6545 59.8534 98.1531 59.728 98.7398 59.728C99.3425 59.728 99.8678 59.84 100.316 60.064L100.028 60.672C99.8518 60.592 99.6545 60.52 99.4358 60.456C99.2225 60.392 98.9878 60.36 98.7318 60.36ZM105.515 65.52H104.667L102.643 62.792L102.059 63.304V65.52H101.339V59.808H102.059V62.624C102.219 62.4427 102.381 62.2614 102.547 62.08C102.712 61.8987 102.877 61.7174 103.043 61.536L104.587 59.808H105.427L103.163 62.296L105.515 65.52ZM111.602 63.992C111.602 64.4987 111.418 64.8934 111.05 65.176C110.682 65.4587 110.186 65.6 109.562 65.6C109.242 65.6 108.946 65.576 108.674 65.528C108.402 65.48 108.175 65.4134 107.994 65.328V64.64C108.186 64.7254 108.423 64.8027 108.706 64.872C108.994 64.9414 109.29 64.976 109.594 64.976C110.015 64.976 110.335 64.8934 110.554 64.728C110.773 64.5627 110.882 64.3387 110.882 64.056C110.882 63.8694 110.842 63.712 110.762 63.584C110.682 63.456 110.543 63.3387 110.346 63.232C110.149 63.1254 109.879 63.008 109.538 62.88C109.047 62.704 108.679 62.488 108.434 62.232C108.189 61.976 108.066 61.6267 108.066 61.184C108.066 60.8854 108.143 60.6267 108.298 60.408C108.453 60.1894 108.666 60.0214 108.938 59.904C109.21 59.7867 109.527 59.728 109.89 59.728C110.199 59.728 110.485 59.7574 110.746 59.816C111.007 59.8747 111.247 59.952 111.466 60.048L111.242 60.664C111.045 60.5787 110.829 60.5067 110.594 60.448C110.359 60.3894 110.119 60.36 109.874 60.36C109.517 60.36 109.247 60.4374 109.066 60.592C108.885 60.7414 108.794 60.9414 108.794 61.192C108.794 61.384 108.834 61.544 108.914 61.672C108.994 61.8 109.125 61.9174 109.306 62.024C109.487 62.1254 109.733 62.232 110.042 62.344C110.378 62.4667 110.661 62.6 110.89 62.744C111.125 62.8827 111.301 63.0507 111.418 63.248C111.541 63.4454 111.602 63.6934 111.602 63.992ZM114.561 65.52H113.841V60.44H112.057V59.808H116.337V60.44H114.561V65.52ZM122.026 62.656C122.026 63.248 121.924 63.7654 121.722 64.208C121.524 64.6454 121.228 64.9867 120.834 65.232C120.444 65.4774 119.964 65.6 119.394 65.6C118.802 65.6 118.308 65.4774 117.914 65.232C117.524 64.9867 117.234 64.6427 117.042 64.2C116.85 63.7574 116.754 63.24 116.754 62.648C116.754 62.0667 116.85 61.5574 117.042 61.12C117.234 60.6774 117.524 60.3334 117.914 60.088C118.308 59.8427 118.804 59.72 119.402 59.72C119.972 59.72 120.452 59.8427 120.842 60.088C121.231 60.328 121.524 60.6694 121.722 61.112C121.924 61.5494 122.026 62.064 122.026 62.656ZM117.514 62.656C117.514 63.376 117.666 63.944 117.97 64.36C118.274 64.7707 118.748 64.976 119.394 64.976C120.039 64.976 120.511 64.7707 120.81 64.36C121.114 63.944 121.266 63.376 121.266 62.656C121.266 61.936 121.116 61.3734 120.818 60.968C120.519 60.5574 120.047 60.352 119.402 60.352C118.751 60.352 118.274 60.5574 117.97 60.968C117.666 61.3734 117.514 61.936 117.514 62.656ZM125.74 60.36C125.126 60.36 124.644 60.5654 124.292 60.976C123.94 61.3867 123.764 61.9494 123.764 62.664C123.764 63.3734 123.926 63.936 124.252 64.352C124.582 64.7627 125.076 64.968 125.732 64.968C125.977 64.968 126.212 64.9467 126.436 64.904C126.66 64.8614 126.881 64.808 127.1 64.744V65.368C126.886 65.448 126.665 65.5067 126.436 65.544C126.212 65.5814 125.942 65.6 125.628 65.6C125.046 65.6 124.561 65.48 124.172 65.24C123.782 65 123.489 64.6587 123.292 64.216C123.1 63.7734 123.004 63.2534 123.004 62.656C123.004 62.08 123.108 61.5734 123.316 61.136C123.529 60.6934 123.841 60.3494 124.252 60.104C124.662 59.8534 125.161 59.728 125.748 59.728C126.35 59.728 126.876 59.84 127.324 60.064L127.036 60.672C126.86 60.592 126.662 60.52 126.444 60.456C126.23 60.392 125.996 60.36 125.74 60.36ZM132.522 65.52H131.674L129.65 62.792L129.066 63.304V65.52H128.346V59.808H129.066V62.624C129.226 62.4427 129.389 62.2614 129.554 62.08C129.72 61.8987 129.885 61.7174 130.05 61.536L131.594 59.808H132.434L130.17 62.296L132.522 65.52ZM136.978 65.52H134.914V65.104L135.586 64.952V60.384L134.914 60.224V59.808H136.978V60.224L136.306 60.384V64.952L136.978 65.104V65.52ZM142.609 65.52H141.769L138.713 60.776H138.681C138.691 60.9627 138.705 61.1947 138.721 61.472C138.737 61.7494 138.745 62.0347 138.745 62.328V65.52H138.081V59.808H138.913L141.961 64.536H141.993C141.987 64.4507 141.979 64.3227 141.969 64.152C141.963 63.9814 141.955 63.7974 141.945 63.6C141.939 63.3974 141.937 63.208 141.937 63.032V59.808H142.609V65.52ZM148.183 59.808L146.143 65.52H145.423L143.383 59.808H144.135L145.423 63.472C145.508 63.7067 145.577 63.928 145.631 64.136C145.689 64.3387 145.74 64.5334 145.783 64.72C145.82 64.5334 145.868 64.336 145.927 64.128C145.985 63.92 146.057 63.696 146.143 63.456L147.423 59.808H148.183ZM152.148 65.52H148.956V59.808H152.148V60.44H149.676V62.224H152.004V62.848H149.676V64.888H152.148V65.52ZM156.641 63.992C156.641 64.4987 156.457 64.8934 156.089 65.176C155.721 65.4587 155.225 65.6 154.601 65.6C154.281 65.6 153.985 65.576 153.713 65.528C153.441 65.48 153.214 65.4134 153.033 65.328V64.64C153.225 64.7254 153.462 64.8027 153.745 64.872C154.033 64.9414 154.329 64.976 154.633 64.976C155.054 64.976 155.374 64.8934 155.593 64.728C155.812 64.5627 155.921 64.3387 155.921 64.056C155.921 63.8694 155.881 63.712 155.801 63.584C155.721 63.456 155.582 63.3387 155.385 63.232C155.188 63.1254 154.918 63.008 154.577 62.88C154.086 62.704 153.718 62.488 153.473 62.232C153.228 61.976 153.105 61.6267 153.105 61.184C153.105 60.8854 153.182 60.6267 153.337 60.408C153.492 60.1894 153.705 60.0214 153.977 59.904C154.249 59.7867 154.566 59.728 154.929 59.728C155.238 59.728 155.524 59.7574 155.785 59.816C156.046 59.8747 156.286 59.952 156.505 60.048L156.281 60.664C156.084 60.5787 155.868 60.5067 155.633 60.448C155.398 60.3894 155.158 60.36 154.913 60.36C154.556 60.36 154.286 60.4374 154.105 60.592C153.924 60.7414 153.833 60.9414 153.833 61.192C153.833 61.384 153.873 61.544 153.953 61.672C154.033 61.8 154.164 61.9174 154.345 62.024C154.526 62.1254 154.772 62.232 155.081 62.344C155.417 62.4667 155.7 62.6 155.929 62.744C156.164 62.8827 156.34 63.0507 156.457 63.248C156.58 63.4454 156.641 63.6934 156.641 63.992ZM159.6 65.52H158.88V60.44H157.096V59.808H161.376V60.44H159.6V65.52ZM164.757 65.52L162.877 60.512H162.845C162.861 60.6774 162.874 60.9014 162.885 61.184C162.896 61.4614 162.901 61.752 162.901 62.056V65.52H162.237V59.808H163.301L165.061 64.488H165.093L166.885 59.808H167.941V65.52H167.229V62.008C167.229 61.7307 167.234 61.456 167.245 61.184C167.261 60.912 167.274 60.6907 167.285 60.52H167.253L165.349 65.52H164.757ZM172.687 65.52H169.495V59.808H172.687V60.44H170.215V62.224H172.543V62.848H170.215V64.888H172.687V65.52ZM178.468 65.52H177.628L174.572 60.776H174.54C174.551 60.9627 174.564 61.1947 174.58 61.472C174.596 61.7494 174.604 62.0347 174.604 62.328V65.52H173.94V59.808H174.772L177.82 64.536H177.852C177.847 64.4507 177.839 64.3227 177.828 64.152C177.823 63.9814 177.815 63.7974 177.804 63.6C177.799 63.3974 177.796 63.208 177.796 63.032V59.808H178.468V65.52ZM181.826 65.52H181.106V60.44H179.322V59.808H183.602V60.44H181.826V65.52Z" fill="#7D12FF"/>
<defs>
<linearGradient id="paint0_linear_639_1356" x1="-4.98228" y1="-7.59899" x2="60.3156" y2="55.6419" gradientUnits="userSpaceOnUse">
<stop stop-color="#F50A5E"/>
<stop offset="0.13" stop-color="#3CC5FC"/>
<stop offset="0.32" stop-color="#65ADF9"/>
<stop offset="0.5" stop-color="#8599F6"/>
<stop offset="0.68" stop-color="#9C8CF4"/>
<stop offset="0.85" stop-color="#AA83F3"/>
<stop offset="1" stop-color="#AF81F3"/>
</linearGradient>
<clipPath id="clip0_639_1356">
<rect width="69" height="67" fill="white"/>
</clipPath>
</defs>
</svg>
