<svg version="1.1" xmlns="http://www.w3.org/2000/svg" xmlns:xlink="http://www.w3.org/1999/xlink" width="512.000000pt" height="512.000000pt" viewBox="0,0,256,256"><g fill="#7d12ff" fill-rule="nonzero" stroke="none" stroke-width="1" stroke-linecap="butt" stroke-linejoin="miter" stroke-miterlimit="10" stroke-dasharray="" stroke-dashoffset="0" font-family="none" font-weight="none" font-size="none" text-anchor="none" style="mix-blend-mode: normal"><g transform="translate(0.05625,0.0238) scale(0.5,0.5)"><g transform="translate(0,512) scale(0.1,-0.1)"><path d="M2330,5110c-494,-48 -950,-230 -1350,-538c-195,-150 -448,-432 -594,-662c-63,-99 -186,-351 -230,-471c-49,-134 -102,-340 -128,-499c-31,-195 -31,-565 0,-760c45,-276 116,-498 237,-745c132,-269 269,-460 489,-681c221,-220 412,-357 681,-489c247,-121 469,-192 745,-237c195,-31 565,-31 760,0c276,45 498,116 745,237c269,132 460,269 681,489c220,221 357,412 489,681c88,179 132,296 180,476c63,240 78,371 78,649c0,278 -15,409 -78,649c-48,180 -92,297 -180,476c-132,269 -269,460 -489,681c-221,220 -412,357 -681,489c-246,121 -474,193 -740,235c-147,23 -475,34 -615,20zM2884,4675c449,-70 861,-280 1186,-605c328,-328 535,-736 607,-1195c24,-152 24,-478 0,-630c-72,-459 -279,-867 -607,-1195c-328,-328 -736,-535 -1195,-607c-152,-24 -478,-24 -630,0c-459,72 -867,279 -1195,607c-328,328 -535,736 -607,1195c-24,152 -24,478 0,630c121,771 647,1419 1372,1690c130,49 336,100 455,114c52,6 109,13 125,15c63,9 394,-4 489,-19z"></path><path d="M3730,3584c-23,-9 -309,-288 -807,-787l-773,-772l-357,356c-197,196 -374,365 -393,375c-45,23 -143,24 -185,2c-72,-38 -116,-108 -117,-183c-2,-94 -4,-91 471,-568c293,-294 460,-454 487,-467c53,-26 133,-26 182,-1c47,25 1744,1724 1767,1769c35,71 13,183 -47,239c-54,51 -157,68 -228,37z"></path></g></g></g></svg>