<?xml version="1.0" standalone="no"?>
<!DOCTYPE svg PUBLIC "-//W3C//DTD SVG 20010904//EN"
 "http://www.w3.org/TR/2001/REC-SVG-20010904/DTD/svg10.dtd">
<svg version="1.0" xmlns="http://www.w3.org/2000/svg"
 width="24.000000pt" height="24.000000pt" viewBox="0 0 24.000000 24.000000"
 preserveAspectRatio="xMidYMid meet">

<g transform="translate(0.000000,24.000000) scale(0.100000,-0.100000)"
fill="#000000" stroke="none">
<path d="M63 190 c-18 -10 -39 -31 -49 -45 -15 -23 -15 -27 0 -50 22 -33 74
-65 106 -65 32 0 84 32 106 65 15 23 15 27 0 50 -22 33 -74 65 -106 65 -14 0
-39 -9 -57 -20z m116 -26 c17 -14 31 -34 31 -44 0 -26 -56 -70 -90 -70 -34 0
-90 44 -90 70 0 26 56 70 90 70 16 0 42 -11 59 -26z"/>
<path d="M86 154 c-31 -30 -9 -84 34 -84 24 0 50 26 50 50 0 24 -26 50 -50 50
-10 0 -26 -7 -34 -16z m59 -34 c0 -18 -6 -26 -23 -28 -24 -4 -38 18 -28 44 3
9 15 14 28 12 17 -2 23 -10 23 -28z"/>
</g>
</svg>
